<svg width="16" height="18" viewBox="0 0 16 18" fill="none" xmlns="http://www.w3.org/2000/svg">
<path d="M15.5 7.33335H0.5M11.3333 0.666687V4.00002M4.66667 0.666687V4.00002M6.75 10.6667L8 9.83335V14M6.95833 14H9.04167M4.5 17.3334H11.5C12.9001 17.3334 13.6002 17.3334 14.135 17.0609C14.6054 16.8212 14.9878 16.4387 15.2275 15.9683C15.5 15.4336 15.5 14.7335 15.5 13.3334V6.33335C15.5 4.93322 15.5 4.23316 15.2275 3.69838C14.9878 3.22797 14.6054 2.84552 14.135 2.60584C13.6002 2.33335 12.9001 2.33335 11.5 2.33335H4.5C3.09987 2.33335 2.3998 2.33335 1.86502 2.60584C1.39462 2.84552 1.01217 3.22797 0.772484 3.69838C0.5 4.23316 0.5 4.93322 0.5 6.33335V13.3334C0.5 14.7335 0.5 15.4336 0.772484 15.9683C1.01217 16.4387 1.39462 16.8212 1.86502 17.0609C2.3998 17.3334 3.09987 17.3334 4.5 17.3334Z" stroke="#374151" stroke-linecap="round" stroke-linejoin="round"/>
</svg>
