<svg width="224" height="224" viewBox="0 0 224 224" fill="none" xmlns="http://www.w3.org/2000/svg">
<rect x="0.5" y="0.5" width="223" height="223" rx="111.5" stroke="#B9B9BC"/>
<path d="M120.6 131H100.518C99.2054 131 98.5491 131 98.2452 130.74C97.9815 130.515 97.8415 130.177 97.8687 129.832C97.9001 129.433 98.3642 128.969 99.2923 128.041L117.715 109.618C118.573 108.76 119.002 108.331 119.497 108.17C119.932 108.029 120.401 108.029 120.836 108.17C121.331 108.331 121.76 108.76 122.618 109.618L131 118V120.6M120.6 131C124.24 131 126.061 131 127.451 130.292C128.674 129.668 129.668 128.674 130.292 127.451C131 126.061 131 124.24 131 120.6M120.6 131H102.4C98.7597 131 96.9395 131 95.5491 130.292C94.326 129.668 93.3316 128.674 92.7085 127.451C92 126.061 92 124.24 92 120.6V102.4C92 98.7597 92 96.9395 92.7085 95.5491C93.3316 94.326 94.326 93.3316 95.5491 92.7085C96.9395 92 98.7597 92 102.4 92H120.6C124.24 92 126.061 92 127.451 92.7085C128.674 93.3316 129.668 94.326 130.292 95.5491C131 96.9395 131 98.7597 131 102.4V120.6M108.25 103.917C108.25 106.31 106.31 108.25 103.917 108.25C101.523 108.25 99.5833 106.31 99.5833 103.917C99.5833 101.523 101.523 99.5833 103.917 99.5833C106.31 99.5833 108.25 101.523 108.25 103.917Z" stroke="#D4D4D4" stroke-width="2" stroke-linecap="round" stroke-linejoin="round"/>
</svg>
